<?xml version="1.0" encoding="UTF-8" standalone="no"?><!DOCTYPE svg PUBLIC "-//W3C//DTD SVG 1.1//EN" "http://www.w3.org/Graphics/SVG/1.1/DTD/svg11.dtd"><svg width="100%" height="100%" viewBox="0 0 4267 4267" version="1.1" xmlns="http://www.w3.org/2000/svg" xmlns:xlink="http://www.w3.org/1999/xlink" xml:space="preserve" xmlns:serif="http://www.serif.com/" style="fill-rule:evenodd;clip-rule:evenodd;stroke-linejoin:bevel;stroke-miterlimit:2;"><rect id="Helmet-Light" x="0" y="0" width="4266.67" height="4266.67" style="fill:none;"/><g><g id="Dice"><path d="M1237.03,1820.99c-0,-0 -0,791.346 -0,791.346l896.306,896.306l896.307,-896.306l0,-791.346l-896.307,-896.307l-896.306,896.307Z" style="fill:#f25f5c;stroke:#070707;stroke-width:41.67px;"/><path d="M3029.64,1820.99l-896.307,-896.307l-896.306,896.307l896.306,896.307l896.307,-896.307Z" style="fill:#f25f5c;stroke:#070707;stroke-width:41.67px;stroke-miterlimit:1.5;"/><g><path d="M2226.07,1180.64c51.182,51.182 51.182,134.288 0,185.47c-51.182,51.182 -134.288,51.182 -185.47,-0c-51.181,-51.182 -51.181,-134.288 0,-185.47c51.182,-51.182 134.288,-51.182 185.47,0Z" style="fill:#fff;"/><path d="M1952.26,1454.45c51.182,51.182 51.182,134.288 0,185.47c-51.181,51.181 -134.288,51.181 -185.469,-0c-51.182,-51.182 -51.182,-134.288 -0,-185.47c51.181,-51.182 134.288,-51.182 185.469,-0Z" style="fill:#fff;"/><path d="M1678.45,1728.26c51.182,51.182 51.182,134.288 0,185.47c-51.181,51.181 -134.288,51.181 -185.469,-0c-51.182,-51.182 -51.182,-134.288 -0,-185.47c51.181,-51.182 134.288,-51.182 185.469,-0Z" style="fill:#fff;"/></g><g><path d="M2773.69,1728.26c51.182,51.182 51.182,134.288 -0,185.47c-51.182,51.181 -134.288,51.181 -185.47,-0c-51.182,-51.182 -51.182,-134.288 0,-185.47c51.182,-51.182 134.288,-51.182 185.47,-0Z" style="fill:#fff;"/><path d="M2499.88,2002.07c51.182,51.181 51.182,134.288 0,185.469c-51.182,51.182 -134.288,51.182 -185.47,0c-51.181,-51.181 -51.181,-134.288 0,-185.469c51.182,-51.182 134.288,-51.182 185.47,-0Z" style="fill:#fff;"/><path d="M2226.07,2275.88c51.182,51.181 51.182,134.288 0,185.469c-51.182,51.182 -134.288,51.182 -185.47,0c-51.181,-51.181 -51.181,-134.288 0,-185.469c51.182,-51.182 134.288,-51.182 185.47,-0Z" style="fill:#fff;"/></g></g><path d="M2133.33,2717.3l0,791.345" style="fill:none;stroke:#070707;stroke-width:50px;stroke-linejoin:miter;stroke-miterlimit:1.5;"/><g id="Eyes"><path d="M2673.74,2437.57c97.644,97.644 97.644,256.193 0,353.837c-97.644,97.644 -256.193,97.644 -353.837,0l353.837,-353.837Z" style="fill:#fff;"/><clipPath id="_clip1"><path d="M2673.74,2437.57c97.644,97.644 97.644,256.193 0,353.837c-97.644,97.644 -256.193,97.644 -353.837,0l353.837,-353.837Z"/></clipPath><g clip-path="url(#_clip1)"><path d="M2648.97,2511.87c70.304,70.304 70.304,184.459 0,254.763c-70.303,70.303 -184.458,70.303 -254.762,-0l254.762,-254.763Zm-2.692,49.832c35.27,56.642 28.311,132.172 -20.878,181.36c-49.189,49.189 -124.718,56.149 -181.36,20.878c0.001,0 202.238,-202.237 202.238,-202.237l-0,-0.001Z" style="fill:#f25f5c;"/></g><path d="M1592.93,2437.57c-97.644,97.644 -97.644,256.193 -0,353.837c97.644,97.644 256.193,97.644 353.837,0l-353.837,-353.837Z" style="fill:#fff;"/><clipPath id="_clip2"><path d="M1592.93,2437.57c-97.644,97.644 -97.644,256.193 -0,353.837c97.644,97.644 256.193,97.644 353.837,0l-353.837,-353.837Z"/></clipPath><g clip-path="url(#_clip2)"><path d="M1617.7,2511.87c-70.303,70.304 -70.303,184.459 0,254.763c70.304,70.303 184.459,70.303 254.763,-0l-254.763,-254.763Zm2.693,49.833l202.237,202.237c-56.641,35.271 -132.171,28.311 -181.36,-20.878c-49.188,-49.188 -56.148,-124.718 -20.877,-181.36l-0,0.001Z" style="fill:#f25f5c;"/></g></g><g id="Helmet-Addons" serif:id="Helmet Addons"><path d="M1237.03,1820.99l896.306,1076.82l0,-180.513l-896.306,-896.307Z" style="fill:#070707;"/><path d="M3029.64,1820.99l-896.307,1076.82l0,-180.513l896.307,-896.307Z" style="fill:#070707;"/><path d="M3029.64,1820.99l717.046,-896.307l-83.969,896.307l-924.539,1504.82l291.462,-1504.82Z" style="fill:#f25f5c;stroke:#070707;stroke-width:41.67px;stroke-linejoin:miter;"/><path d="M1237.03,1820.99l-717.046,-896.307l83.969,896.307l924.539,1504.82l-291.462,-1504.82Z" style="fill:#f25f5c;stroke:#070707;stroke-width:41.67px;stroke-linejoin:miter;"/></g></g></svg>